<?xml version="1.0" standalone="no"?>
<!DOCTYPE svg PUBLIC "-//W3C//DTD SVG 20010904//EN"
 "http://www.w3.org/TR/2001/REC-SVG-20010904/DTD/svg10.dtd">
<svg version="1.0" xmlns="http://www.w3.org/2000/svg"
 width="1000.000000pt" height="1000.000000pt" viewBox="0 0 1000.000000 1000.000000"
 preserveAspectRatio="xMidYMid meet">

<g transform="translate(0.000000,1000.000000) scale(0.100000,-0.100000)"
fill="#000000" stroke="none">
<path d="M4790 7998 c68 -26 175 -129 215 -207 58 -116 55 27 55 -2152 0
-1970 0 -2008 -20 -2070 -42 -137 -160 -263 -280 -300 -14 -4 318 -8 738 -8
l762 -1 0 2380 0 2380 -762 -1 -763 0 55 -21z"/>
<path d="M6650 7997 c325 -134 550 -615 550 -1179 0 -557 -238 -1047 -565
-1160 l-50 -17 64 -1 c160 0 337 -88 465 -231 146 -163 248 -382 303 -657 25
-121 24 -457 0 -589 -61 -327 -191 -578 -390 -751 -75 -64 -132 -98 -217 -129
l-65 -23 465 3 c511 4 512 4 717 72 431 143 750 469 846 865 45 186 44 346 -3
532 -79 309 -341 614 -665 776 -139 69 -387 140 -497 143 -69 1 -73 14 -11 33
300 94 596 380 723 699 130 326 105 723 -65 1022 -151 264 -392 463 -678 558
-149 50 -221 57 -617 57 l-365 0 55 -23z"/>
<path d="M1975 7013 c-198 -548 -377 -1043 -398 -1100 l-37 -105 30 26 c90 75
225 47 278 -59 25 -50 684 -1953 713 -2061 15 -53 -6 -178 -41 -251 -36 -73
-126 -160 -191 -185 -42 -16 8 -17 931 -17 801 0 968 3 935 13 -64 20 -100 42
-164 101 -71 67 -120 138 -155 226 -34 87 -605 1719 -645 1844 -59 183 -886
2565 -891 2565 -3 0 -167 -449 -365 -997z"/>
<path d="M864 3962 c-144 -300 -479 -603 -759 -683 -58 -17 -37 -18 695 -17
654 0 747 1 695 13 -238 53 -438 222 -528 445 -37 90 -48 141 -56 242 l-6 87
-41 -87z"/>
<path d="M9428 3930 c-69 -12 -133 -47 -184 -102 -67 -72 -88 -125 -88 -228
-1 -73 3 -94 28 -148 36 -78 105 -143 184 -172 77 -29 195 -25 267 10 66 32
131 99 163 168 38 82 38 192 -2 278 -64 141 -214 220 -368 194z"/>
</g>
</svg>
